<svg version="1.1" id="Layer_1" xmlns="http://www.w3.org/2000/svg" xmlns:xlink="http://www.w3.org/1999/xlink" x="0px" y="0px"
	 width="100%" viewBox="0 0 2064 270" enable-background="new 0 0 2064 270" xml:space="preserve">
<path fill="#000000" opacity="1.000000" stroke="none" 
	d="
M1069.000000,1.000011 
	C1212.689331,1.000000 1356.378662,1.000000 1500.528687,1.373105 
	C1493.844116,16.802736 1486.634399,31.829058 1479.570923,46.923820 
	C1471.659668,63.829727 1463.916382,80.814133 1456.030029,97.731758 
	C1451.936890,106.512024 1447.621094,115.188530 1443.531738,123.970528 
	C1435.652100,140.891785 1427.837891,157.843658 1420.042969,174.804138 
	C1414.974731,185.831650 1410.086304,196.942627 1404.942139,207.934143 
	C1397.319580,224.220917 1389.484131,240.408005 1381.866211,256.696899 
	C1379.685669,261.359314 1377.943237,266.226624 1376.000000,271.000000 
	C1274.977295,271.000000 1173.954712,271.000000 1072.161865,270.637512 
	C1072.228638,269.850922 1073.042969,269.111267 1073.905518,269.049835 
	C1087.920410,268.051819 1100.914673,263.357269 1113.553467,257.725525 
	C1128.729980,250.963028 1141.170654,240.213364 1153.343994,229.170242 
	C1155.655762,227.073059 1155.699585,225.080933 1153.421753,222.882111 
	C1149.947021,219.527969 1146.394775,216.226227 1143.209961,212.607864 
	C1140.151001,209.132538 1137.822266,209.330582 1134.730713,212.669739 
	C1126.028809,222.068726 1115.711548,229.461151 1104.299927,235.165680 
	C1092.882690,240.873032 1080.970947,245.558716 1068.018677,245.899826 
	C1057.591553,246.174454 1047.050659,246.316727 1036.722290,245.119781 
	C1022.849060,243.512085 1010.228394,237.746918 998.187683,230.699966 
	C986.911865,224.100693 977.240234,215.467697 969.324707,205.386719 
	C956.425598,188.958725 948.053040,170.397736 945.838867,149.156021 
	C943.820312,129.791382 946.049194,111.455978 953.693848,93.424225 
	C961.135376,75.871605 972.214905,61.449928 986.908813,49.602013 
	C1005.585571,34.542702 1027.157837,26.708706 1050.895630,25.123686 
	C1062.809692,24.328148 1074.518188,26.353697 1086.061157,29.874760 
	C1106.071655,35.978779 1122.983521,46.658329 1137.117554,61.988785 
	C1137.637329,62.552601 1140.086670,62.227619 1140.883545,61.496204 
	C1144.929932,57.782524 1148.610474,53.670399 1152.654053,49.953411 
	C1155.287476,47.532669 1155.748169,45.715111 1152.765381,43.178356 
	C1146.507812,37.856331 1140.860840,31.730642 1134.230469,26.951363 
	C1122.485352,18.485235 1109.818848,11.461445 1095.594238,7.974642 
	C1087.463257,5.981536 1079.164917,4.675531 1070.969727,2.930314 
	C1070.210571,2.768634 1069.651733,1.665836 1069.000000,1.000011 
z"/>
<path fill="#000000" opacity="1.000000" stroke="none" 
	d="
M1504.000000,1.000000 
	C1619.020874,1.000000 1734.041870,1.000000 1849.531372,1.468657 
	C1850.000000,91.624878 1850.000000,181.312439 1850.000000,271.000000 
	C1776.645752,271.000000 1703.291504,271.000000 1629.463379,270.627716 
	C1621.481934,254.495956 1613.892456,238.774887 1606.489868,222.966400 
	C1598.929199,206.820374 1591.607300,190.562637 1584.072510,174.404343 
	C1579.572144,164.753143 1574.761719,155.246292 1570.276855,145.588043 
	C1565.844727,136.042938 1561.775146,126.329063 1557.316895,116.796585 
	C1550.328857,101.854973 1543.061890,87.043785 1536.071167,72.103348 
	C1528.116821,55.103584 1520.281738,38.047249 1512.507690,20.964193 
	C1509.512207,14.382084 1506.826660,7.658907 1504.000000,1.000000 
z"/>
<path fill="#000000" opacity="1.000000" stroke="none" 
	d="
M474.000000,271.000000 
	C400.645782,271.000000 327.291534,271.000000 253.463257,270.625488 
	C250.846756,265.531555 248.759430,260.786224 246.551147,256.097839 
	C240.829132,243.949387 234.967041,231.866257 229.319138,219.683670 
	C219.636612,198.798370 210.165985,177.814529 200.431900,156.953491 
	C193.240509,141.541687 185.700378,126.292931 178.450500,110.907982 
	C173.204666,99.775879 168.173935,88.542328 163.058792,77.348755 
	C159.349289,69.231163 155.683701,61.093430 151.953262,52.985500 
	C147.282822,42.834530 142.553711,32.710579 137.873428,22.564116 
	C134.562088,15.385394 131.289749,8.188681 128.000000,0.999999 
	C243.020889,1.000000 358.041779,1.000000 473.531342,1.468657 
	C474.000000,89.468613 473.998993,176.999924 474.006958,264.531219 
	C474.007111,266.357422 474.111115,268.183655 474.089478,270.251404 
	C474.008179,270.661987 474.004089,270.830994 474.000000,271.000000 
z"/>
<path fill="#000000" opacity="1.000000" stroke="none" 
	d="
M1039.000000,271.000000 
	C926.310730,271.000000 813.621399,271.000000 700.459961,270.748291 
	C699.936218,270.336823 699.884766,270.177032 699.909180,269.660889 
	C692.081665,258.104736 684.116638,246.947983 676.287781,235.696487 
	C658.526733,210.170807 640.832642,184.598557 623.412720,159.023407 
	C624.157959,158.704620 624.601929,158.407654 625.456909,158.059418 
	C630.245178,156.616531 634.622253,155.224930 639.359436,153.816223 
	C644.184509,151.213547 648.649475,148.627975 653.387573,145.957397 
	C654.121155,145.286499 654.581726,144.700607 655.369751,144.060516 
	C656.496338,143.357697 657.295471,142.709076 658.054321,142.038651 
	C658.014038,142.016830 658.058228,142.097076 658.387573,142.050964 
	C659.516052,141.350708 660.315308,140.696548 661.426453,139.923477 
	C666.856995,133.357086 672.538391,127.272804 676.980408,120.388756 
	C687.141663,104.641273 687.951538,86.807686 686.918518,68.790642 
	C686.748840,65.830353 685.554321,62.928818 684.910461,59.656288 
	C684.694824,58.525978 684.402161,57.739517 684.057617,56.621857 
	C683.614990,55.527138 683.224182,54.763622 682.908936,53.636330 
	C682.265259,51.575775 681.546143,49.878998 680.855469,47.808174 
	C680.596436,47.036411 680.236267,46.672707 680.032104,46.236050 
	C671.938049,28.923933 659.295227,16.123360 641.931152,7.590051 
	C641.212830,7.251562 640.606384,7.209114 639.690918,7.035719 
	C638.602234,6.565213 637.822632,6.225654 636.890991,5.555295 
	C635.159302,4.871882 633.579651,4.519271 631.646973,4.001136 
	C629.567383,3.542873 627.840881,3.250135 626.017334,2.680165 
	C625.613525,1.935295 625.306763,1.467657 625.000000,1.000009 
	C763.356018,1.000000 901.711975,1.000000 1040.838135,1.363150 
	C1037.065796,2.648573 1032.520996,3.559441 1027.981323,4.495232 
	C1013.421265,7.496539 999.853638,12.841332 986.971252,20.390913 
	C967.661926,31.706898 952.490784,47.069218 940.707031,65.850433 
	C932.895447,78.300728 928.071350,91.915955 924.650269,106.312447 
	C920.830383,122.387093 919.873596,138.449799 922.193176,154.540405 
	C924.655945,171.625290 929.583191,188.252029 938.750183,203.062592 
	C944.459167,212.286392 950.597473,221.583633 958.181152,229.221481 
	C967.497131,238.603943 977.726135,247.157455 989.730103,253.528351 
	C1004.558350,261.398102 1019.897278,267.002533 1036.549438,269.072388 
	C1037.432495,269.182098 1038.186157,270.333527 1039.000000,271.000000 
z"/>
<path fill="#000000" opacity="1.000000" stroke="none" 
	d="
M227.000000,271.000000 
	C160.312439,271.000000 93.624878,271.000000 26.473991,270.626709 
	C35.131687,250.563599 44.178139,230.838806 53.397903,211.195358 
	C60.467976,196.131973 67.893211,181.234756 74.914787,166.149261 
	C84.413055,145.742706 93.615845,125.198822 103.060196,104.766922 
	C109.924561,89.916588 116.959030,75.144684 123.971642,60.363434 
	C124.546295,59.152180 125.536713,58.138172 126.333946,57.032516 
	C127.223991,58.028633 128.355698,58.897015 128.961609,60.043320 
	C131.381622,64.621681 133.768265,69.226601 135.932159,73.929863 
	C144.320923,92.163071 152.552246,110.468857 160.969193,128.688950 
	C170.959351,150.314590 181.049545,171.894211 191.154358,193.466629 
	C199.404999,211.080688 207.800659,228.626999 216.012466,246.259033 
	C219.821533,254.437759 223.346329,262.748901 227.000000,271.000000 
z"/>
<path fill="#000000" opacity="1.000000" stroke="none" 
	d="
M1601.000000,271.000000 
	C1534.979126,271.000000 1468.958130,271.000000 1402.474487,270.620544 
	C1405.323120,263.222076 1408.690674,256.228882 1411.935913,249.179428 
	C1423.312622,224.466599 1434.568848,199.698013 1446.027710,175.023468 
	C1452.780151,160.483383 1459.969971,146.146332 1466.711182,131.601257 
	C1477.754028,107.775002 1488.570068,83.843697 1499.571533,59.998074 
	C1500.198608,58.639088 1501.634644,57.653282 1503.082764,56.068535 
	C1503.994873,58.450199 1504.430298,59.833439 1505.037842,61.136444 
	C1514.345947,81.097809 1523.696777,101.039314 1532.996704,121.004478 
	C1544.365234,145.410309 1555.599487,169.879211 1567.071289,194.236206 
	C1577.216187,215.775177 1587.715698,237.147461 1597.786621,258.720306 
	C1599.547241,262.491669 1599.963135,266.890778 1601.000000,271.000000 
z"/>
<path fill="#000000" opacity="1.000000" stroke="none" 
	d="
M2037.000000,271.000000 
	C1982.312378,271.000000 1927.624878,271.000000 1872.468628,270.531342 
	C1872.000000,192.783875 1872.000000,115.505058 1872.000000,37.808903 
	C1873.230835,38.197681 1874.406860,38.197510 1874.845215,38.766064 
	C1878.603760,43.641518 1882.382568,48.514450 1885.865723,53.587002 
	C1896.992065,69.790817 1907.833496,86.192215 1919.093018,102.302170 
	C1928.752563,116.123215 1938.982788,129.544617 1948.688599,143.334152 
	C1958.152100,156.779419 1967.152710,170.549789 1976.567017,184.030502 
	C1992.374023,206.664886 2008.386719,229.155548 2024.226074,251.767395 
	C2028.640259,258.068787 2032.750366,264.583282 2037.000000,271.000000 
z"/>
<path fill="#000000" opacity="1.000000" stroke="none" 
	d="
M1879.000000,0.999992 
	C1933.354248,1.000000 1987.708496,1.000000 2042.531372,1.468657 
	C2043.000000,79.596077 2043.000000,157.254837 2043.000000,234.913589 
	C2040.250244,232.995453 2038.523315,230.928879 2036.991333,228.726669 
	C2027.009766,214.378281 2017.120850,199.965225 2007.104004,185.641663 
	C1996.091309,169.894363 1984.929565,154.251389 1973.914917,138.505524 
	C1963.985840,124.311638 1954.227905,109.998077 1944.284546,95.814362 
	C1933.064087,79.808853 1921.740601,63.875393 1910.424561,47.937183 
	C1902.097168,36.208488 1893.601562,24.597345 1885.412720,12.773194 
	C1882.883057,9.120420 1881.116211,4.939220 1879.000000,0.999992 
z"/>
<path fill="#FBF9FF" opacity="1.000000" stroke="none" 
	d="
M626.114319,2.957394 
	C627.840881,3.250135 629.567383,3.542873 631.712036,4.326789 
	C633.767761,5.174012 635.405334,5.530057 637.042969,5.886099 
	C637.822632,6.225654 638.602234,6.565213 639.734009,7.320849 
	C640.738342,7.786649 641.390686,7.836370 642.042969,7.886091 
	C659.295227,16.123360 671.938049,28.923933 680.032104,46.236050 
	C680.236267,46.672707 680.596436,47.036411 680.643616,48.169693 
	C681.213379,50.603535 682.023376,52.301819 682.833374,54.000103 
	C683.224182,54.763622 683.614990,55.527138 683.793884,56.805260 
	C683.999084,58.213295 684.416199,59.106724 684.833374,60.000137 
	C685.554321,62.928818 686.748840,65.830353 686.918518,68.790642 
	C687.951538,86.807686 687.141663,104.641273 676.980408,120.388756 
	C672.538391,127.272804 666.856995,133.357086 661.058716,139.917633 
	C659.605347,140.719482 658.831787,141.408264 658.058228,142.097076 
	C658.058228,142.097076 658.014038,142.016830 657.686768,142.027939 
	C656.587036,142.730927 655.814636,143.422821 655.042236,144.114716 
	C654.581726,144.700607 654.121155,145.286499 652.956299,145.945557 
	C650.293701,146.265427 648.223083,146.190796 646.401489,146.828018 
	C642.976135,148.026230 638.437927,148.324875 638.999390,153.833344 
	C634.622253,155.224930 630.245178,156.616531 625.314941,157.762238 
	C623.994934,157.230255 623.228027,156.944199 622.461121,156.658127 
	C622.677856,157.453827 622.894592,158.249542 623.111328,159.045242 
	C640.832642,184.598557 658.526733,210.170807 676.287781,235.696487 
	C684.116638,246.947983 692.081665,258.104736 699.720825,269.777954 
	C699.228943,270.454834 699.076721,270.704376 699.000000,271.000000 
	C690.645752,271.000000 682.291504,271.000000 673.433350,270.693298 
	C672.341858,269.924347 671.754272,269.462067 671.025208,268.677429 
	C668.253296,264.874176 665.500305,261.478271 663.015076,257.896545 
	C655.385559,246.900604 647.961548,235.761185 640.269653,224.809586 
	C625.794495,204.200226 611.096313,183.746613 596.756714,163.044083 
	C595.049622,160.579453 593.504883,159.959213 590.867188,159.964188 
	C560.885742,160.020599 530.904175,159.996521 500.922607,160.012192 
	C499.659698,160.012848 498.396851,160.191757 497.000000,160.297791 
	C497.000000,165.781708 497.007477,170.931122 496.998749,176.080505 
	C496.945679,207.390289 496.888885,238.700073 496.645691,270.129333 
	C496.230499,270.453583 496.077820,270.703949 496.000000,271.000000 
	C489.312347,271.000000 482.624725,271.000000 475.382080,270.795013 
	C474.666901,270.328369 474.446777,270.134979 474.166656,270.009857 
	C474.111115,268.183655 474.007111,266.357422 474.006958,264.531219 
	C473.998993,176.999924 474.000000,89.468613 474.000000,1.468657 
	C522.354248,1.000000 570.708435,1.000000 619.612793,1.378886 
	C622.146729,2.157645 624.130493,2.557518 626.114319,2.957394 
M639.304443,128.559006 
	C640.188599,127.668091 641.072754,126.777168 642.127197,125.339836 
	C642.713379,124.879036 643.299500,124.418236 644.690063,123.979126 
	C645.778992,122.948166 646.867981,121.917206 648.071167,120.414703 
	C648.256958,120.109612 648.528442,119.957184 649.565247,119.973557 
	C650.005005,119.301849 650.444763,118.630142 650.994690,117.241661 
	C653.687439,112.710587 656.788574,108.368095 658.986572,103.608528 
	C663.345215,94.170036 666.394897,84.382553 664.028564,73.724121 
	C663.468994,71.203430 663.257629,68.605415 663.406738,65.660553 
	C662.660034,64.106972 661.913330,62.553398 660.904724,60.381748 
	C660.565247,59.602192 660.225769,58.822636 660.362244,57.738857 
	C659.963684,57.159180 659.565125,56.579502 658.875183,55.342793 
	C654.580383,49.839642 650.285522,44.336491 645.799683,38.482685 
	C645.634338,38.264000 645.423279,38.106422 644.883179,37.355263 
	C639.255554,33.847946 633.627869,30.340631 627.848877,26.148901 
	C624.885620,25.471354 621.922363,24.793806 618.074707,24.008461 
	C577.765259,24.008461 537.455811,24.008461 497.310303,24.008461 
	C497.310303,61.710873 497.310303,99.768921 497.310303,138.000000 
	C503.100922,138.000000 508.582245,137.992218 514.063599,138.001282 
	C546.042603,138.054230 578.021545,138.111115 610.108337,138.756577 
	C610.574768,138.974869 611.041199,139.193161 611.507629,139.411438 
	C611.671936,138.663177 611.836243,137.914917 612.824280,137.012268 
	C614.216370,137.063736 615.608459,137.115189 617.108337,137.756561 
	C617.574768,137.974854 618.041199,138.193146 618.507629,138.411438 
	C618.671936,137.663177 618.836243,136.914917 619.742615,136.012360 
	C620.495239,136.063797 621.247925,136.115219 622.123962,136.798065 
	C627.600281,134.356506 633.076599,131.914948 638.552917,129.473419 
	C638.414551,129.175537 638.276184,128.877655 638.293518,128.274124 
	C638.293518,128.274124 638.603882,128.128052 639.304443,128.559006 
z"/>
<path fill="#FBF9FF" opacity="1.000000" stroke="none" 
	d="
M1878.531372,0.999992 
	C1881.116211,4.939220 1882.883057,9.120420 1885.412720,12.773194 
	C1893.601562,24.597345 1902.097168,36.208488 1910.424561,47.937183 
	C1921.740601,63.875393 1933.064087,79.808853 1944.284546,95.814362 
	C1954.227905,109.998077 1963.985840,124.311638 1973.914917,138.505524 
	C1984.929565,154.251389 1996.091309,169.894363 2007.104004,185.641663 
	C2017.120850,199.965225 2027.009766,214.378281 2036.991333,228.726669 
	C2038.523315,230.928879 2040.250244,232.995453 2043.000000,234.913589 
	C2043.000000,157.254837 2043.000000,79.596077 2043.000000,1.468657 
	C2050.323242,1.000000 2057.646729,1.000000 2064.950195,1.000000 
	C2064.950195,91.000015 2064.950195,181.000015 2064.950195,271.000000 
	C2055.912598,271.000000 2046.924927,271.000000 2037.468628,271.000000 
	C2032.750366,264.583282 2028.640259,258.068787 2024.226074,251.767395 
	C2008.386719,229.155548 1992.374023,206.664886 1976.567017,184.030502 
	C1967.152710,170.549789 1958.152100,156.779419 1948.688599,143.334152 
	C1938.982788,129.544617 1928.752563,116.123215 1919.093018,102.302170 
	C1907.833496,86.192215 1896.992065,69.790817 1885.865723,53.587002 
	C1882.382568,48.514450 1878.603760,43.641518 1874.845215,38.766064 
	C1874.406860,38.197510 1873.230835,38.197681 1872.000000,37.808903 
	C1872.000000,115.505058 1872.000000,192.783875 1872.000000,270.531342 
	C1864.979004,271.000000 1857.958130,271.000000 1850.468506,271.000000 
	C1850.000000,181.312439 1850.000000,91.624878 1850.000000,1.468657 
	C1859.354248,1.000000 1868.708496,1.000000 1878.531372,0.999992 
z"/>
<path fill="#000000" opacity="1.000000" stroke="none" 
	d="
M1.000002,265.000000 
	C1.000000,177.099319 1.000000,89.198624 1.000000,1.000000 
	C42.020412,1.000000 83.041550,1.000000 124.525833,1.376293 
	C118.781967,14.896961 112.474091,27.994856 106.389969,41.195869 
	C95.408913,65.021988 84.657120,88.954033 73.624367,112.755989 
	C66.479843,128.169510 58.901989,143.381805 51.709694,158.773697 
	C44.585606,174.019623 37.757278,189.403458 30.698387,204.680206 
	C21.741081,224.065475 12.701055,243.412659 3.610338,262.735657 
	C3.161903,263.688812 1.888996,264.254089 1.000002,265.000000 
z"/>
<path fill="#000000" opacity="1.000000" stroke="none" 
	d="
M496.833344,270.009857 
	C496.888885,238.700073 496.945679,207.390289 496.998749,176.080505 
	C497.007477,170.931122 497.000000,165.781708 497.000000,160.297791 
	C498.396851,160.191757 499.659698,160.012848 500.922607,160.012192 
	C530.904175,159.996521 560.885742,160.020599 590.867188,159.964188 
	C593.504883,159.959213 595.049622,160.579453 596.756714,163.044083 
	C611.096313,183.746613 625.794495,204.200226 640.269653,224.809586 
	C647.961548,235.761185 655.385559,246.900604 663.015076,257.896545 
	C665.500305,261.478271 668.253296,264.874176 670.947998,269.004822 
	C671.008118,270.103058 671.004028,270.551514 671.000000,271.000000 
	C613.312439,271.000000 555.624878,271.000000 497.462524,270.746490 
	C496.936249,270.331909 496.884796,270.170868 496.833344,270.009857 
z"/>
<path fill="#FBF9FF" opacity="1.000000" stroke="none" 
	d="
M1039.468628,271.000000 
	C1038.186157,270.333527 1037.432495,269.182098 1036.549438,269.072388 
	C1019.897278,267.002533 1004.558350,261.398102 989.730103,253.528351 
	C977.726135,247.157455 967.497131,238.603943 958.181152,229.221481 
	C950.597473,221.583633 944.459167,212.286392 938.750183,203.062592 
	C929.583191,188.252029 924.655945,171.625290 922.193176,154.540405 
	C919.873596,138.449799 920.830383,122.387093 924.650269,106.312447 
	C928.071350,91.915955 932.895447,78.300728 940.707031,65.850433 
	C952.490784,47.069218 967.661926,31.706898 986.971252,20.390913 
	C999.853638,12.841332 1013.421265,7.496539 1027.981323,4.495232 
	C1032.520996,3.559441 1037.065796,2.648573 1041.304199,1.363150 
	C1050.020874,1.000000 1059.041870,1.000000 1068.531372,1.000011 
	C1069.651733,1.665836 1070.210571,2.768634 1070.969727,2.930314 
	C1079.164917,4.675531 1087.463257,5.981536 1095.594238,7.974642 
	C1109.818848,11.461445 1122.485352,18.485235 1134.230469,26.951363 
	C1140.860840,31.730642 1146.507812,37.856331 1152.765381,43.178356 
	C1155.748169,45.715111 1155.287476,47.532669 1152.654053,49.953411 
	C1148.610474,53.670399 1144.929932,57.782524 1140.883545,61.496204 
	C1140.086670,62.227619 1137.637329,62.552601 1137.117554,61.988785 
	C1122.983521,46.658329 1106.071655,35.978779 1086.061157,29.874760 
	C1074.518188,26.353697 1062.809692,24.328148 1050.895630,25.123686 
	C1027.157837,26.708706 1005.585571,34.542702 986.908813,49.602013 
	C972.214905,61.449928 961.135376,75.871605 953.693848,93.424225 
	C946.049194,111.455978 943.820312,129.791382 945.838867,149.156021 
	C948.053040,170.397736 956.425598,188.958725 969.324707,205.386719 
	C977.240234,215.467697 986.911865,224.100693 998.187683,230.699966 
	C1010.228394,237.746918 1022.849060,243.512085 1036.722290,245.119781 
	C1047.050659,246.316727 1057.591553,246.174454 1068.018677,245.899826 
	C1080.970947,245.558716 1092.882690,240.873032 1104.299927,235.165680 
	C1115.711548,229.461151 1126.028809,222.068726 1134.730713,212.669739 
	C1137.822266,209.330582 1140.151001,209.132538 1143.209961,212.607864 
	C1146.394775,216.226227 1149.947021,219.527969 1153.421753,222.882111 
	C1155.699585,225.080933 1155.655762,227.073059 1153.343994,229.170242 
	C1141.170654,240.213364 1128.729980,250.963028 1113.553467,257.725525 
	C1100.914673,263.357269 1087.920410,268.051819 1073.905518,269.049835 
	C1073.042969,269.111267 1072.228638,269.850922 1071.695923,270.637512 
	C1061.312378,271.000000 1050.624878,271.000000 1039.468628,271.000000 
z"/>
<path fill="#FF3399" opacity="1.000000" stroke="none" 
	d="
M1601.468628,271.000000 
	C1599.963135,266.890778 1599.547241,262.491669 1597.786621,258.720306 
	C1587.715698,237.147461 1577.216187,215.775177 1567.071289,194.236206 
	C1555.599487,169.879211 1544.365234,145.410309 1532.996704,121.004478 
	C1523.696777,101.039314 1514.345947,81.097809 1505.037842,61.136444 
	C1504.430298,59.833439 1503.994873,58.450199 1503.082764,56.068535 
	C1501.634644,57.653282 1500.198608,58.639088 1499.571533,59.998074 
	C1488.570068,83.843697 1477.754028,107.775002 1466.711182,131.601257 
	C1459.969971,146.146332 1452.780151,160.483383 1446.027710,175.023468 
	C1434.568848,199.698013 1423.312622,224.466599 1411.935913,249.179428 
	C1408.690674,256.228882 1405.323120,263.222076 1402.005859,270.620544 
	C1393.645752,271.000000 1385.291504,271.000000 1376.468628,271.000000 
	C1377.943237,266.226624 1379.685669,261.359314 1381.866211,256.696899 
	C1389.484131,240.408005 1397.319580,224.220917 1404.942139,207.934143 
	C1410.086304,196.942627 1414.974731,185.831650 1420.042969,174.804138 
	C1427.837891,157.843658 1435.652100,140.891785 1443.531738,123.970528 
	C1447.621094,115.188530 1451.936890,106.512024 1456.030029,97.731758 
	C1463.916382,80.814133 1471.659668,63.829727 1479.570923,46.923820 
	C1486.634399,31.829058 1493.844116,16.802736 1500.994629,1.373105 
	C1501.750000,1.000000 1502.500000,1.000000 1503.625000,1.000000 
	C1506.826660,7.658907 1509.512207,14.382084 1512.507690,20.964193 
	C1520.281738,38.047249 1528.116821,55.103584 1536.071167,72.103348 
	C1543.061890,87.043785 1550.328857,101.854973 1557.316895,116.796585 
	C1561.775146,126.329063 1565.844727,136.042938 1570.276855,145.588043 
	C1574.761719,155.246292 1579.572144,164.753143 1584.072510,174.404343 
	C1591.607300,190.562637 1598.929199,206.820374 1606.489868,222.966400 
	C1613.892456,238.774887 1621.481934,254.495956 1628.994629,270.627716 
	C1619.979126,271.000000 1610.958130,271.000000 1601.468628,271.000000 
z"/>
<path fill="#FF3399" opacity="1.000000" stroke="none" 
	d="
M1.000002,265.499481 
	C1.888996,264.254089 3.161903,263.688812 3.610338,262.735657 
	C12.701055,243.412659 21.741081,224.065475 30.698387,204.680206 
	C37.757278,189.403458 44.585606,174.019623 51.709694,158.773697 
	C58.901989,143.381805 66.479843,128.169510 73.624367,112.755989 
	C84.657120,88.954033 95.408913,65.021988 106.389969,41.195869 
	C112.474091,27.994856 118.781967,14.896961 124.994492,1.376293 
	C125.750000,1.000000 126.500000,1.000000 127.625000,0.999999 
	C131.289749,8.188681 134.562088,15.385394 137.873428,22.564116 
	C142.553711,32.710579 147.282822,42.834530 151.953262,52.985500 
	C155.683701,61.093430 159.349289,69.231163 163.058792,77.348755 
	C168.173935,88.542328 173.204666,99.775879 178.450500,110.907982 
	C185.700378,126.292931 193.240509,141.541687 200.431900,156.953491 
	C210.165985,177.814529 219.636612,198.798370 229.319138,219.683670 
	C234.967041,231.866257 240.829132,243.949387 246.551147,256.097839 
	C248.759430,260.786224 250.846756,265.531555 252.994598,270.625488 
	C244.645767,271.000000 236.291534,271.000000 227.468658,271.000000 
	C223.346329,262.748901 219.821533,254.437759 216.012466,246.259033 
	C207.800659,228.626999 199.404999,211.080688 191.154358,193.466629 
	C181.049545,171.894211 170.959351,150.314590 160.969193,128.688950 
	C152.552246,110.468857 144.320923,92.163071 135.932159,73.929863 
	C133.768265,69.226601 131.381622,64.621681 128.961609,60.043320 
	C128.355698,58.897015 127.223991,58.028633 126.333946,57.032516 
	C125.536713,58.138172 124.546295,59.152180 123.971642,60.363434 
	C116.959030,75.144684 109.924561,89.916588 103.060196,104.766922 
	C93.615845,125.198822 84.413055,145.742706 74.914787,166.149261 
	C67.893211,181.234756 60.467976,196.131973 53.397903,211.195358 
	C44.178139,230.838806 35.131687,250.563599 26.005333,270.626709 
	C17.666574,271.000000 9.333151,271.000000 1.000000,271.000000 
	C1.000000,269.277771 1.000000,267.638367 1.000002,265.499481 
z"/>
<path fill="#FBF9FF" opacity="1.000000" stroke="none" 
	d="
M626.017334,2.680162 
	C624.130493,2.557518 622.146729,2.157645 620.081421,1.378886 
	C621.388916,1.000000 622.777771,1.000000 624.583374,1.000009 
	C625.306763,1.467657 625.613525,1.935295 626.017334,2.680162 
z"/>
<path fill="#FBF9FF" opacity="1.000000" stroke="none" 
	d="
M671.333252,271.000000 
	C671.004028,270.551514 671.008118,270.103058 671.089417,269.327179 
	C671.754272,269.462067 672.341858,269.924347 672.964722,270.693298 
	C672.555542,271.000000 672.111084,271.000000 671.333252,271.000000 
z"/>
<path fill="#FBF9FF" opacity="1.000000" stroke="none" 
	d="
M474.089478,270.251404 
	C474.446777,270.134979 474.666901,270.328369 474.913513,270.795013 
	C475.000000,271.000000 474.500000,271.000000 474.250000,271.000000 
	C474.004089,270.830994 474.008179,270.661987 474.089478,270.251404 
z"/>
<path fill="#FBF9FF" opacity="1.000000" stroke="none" 
	d="
M496.645691,270.129333 
	C496.884796,270.170868 496.936249,270.331909 496.993866,270.746490 
	C497.000000,271.000000 496.500000,271.000000 496.250000,271.000000 
	C496.077820,270.703949 496.230499,270.453583 496.645691,270.129333 
z"/>
<path fill="#FBF9FF" opacity="1.000000" stroke="none" 
	d="
M699.250000,271.000000 
	C699.076721,270.704376 699.228943,270.454834 699.645020,270.134338 
	C699.884766,270.177032 699.936218,270.336823 699.993896,270.748291 
	C700.000000,271.000000 699.500000,271.000000 699.250000,271.000000 
z"/>
<path fill="#FBF9FF" opacity="1.000000" stroke="none" 
	d="
M639.359436,153.816223 
	C638.437927,148.324875 642.976135,148.026230 646.401489,146.828018 
	C648.223083,146.190796 650.293701,146.265427 652.683228,146.030579 
	C648.649475,148.627975 644.184509,151.213547 639.359436,153.816223 
z"/>
<path fill="#FBF9FF" opacity="1.000000" stroke="none" 
	d="
M636.890991,5.555299 
	C635.405334,5.530057 633.767761,5.174012 632.065063,4.492313 
	C633.579651,4.519271 635.159302,4.871882 636.890991,5.555299 
z"/>
<path fill="#FBF9FF" opacity="1.000000" stroke="none" 
	d="
M682.908936,53.636330 
	C682.023376,52.301819 681.213379,50.603535 680.615234,48.543732 
	C681.546143,49.878998 682.265259,51.575775 682.908936,53.636330 
z"/>
<path fill="#FBF9FF" opacity="1.000000" stroke="none" 
	d="
M623.412720,159.023407 
	C622.894592,158.249542 622.677856,157.453827 622.461121,156.658127 
	C623.228027,156.944199 623.994934,157.230255 624.903809,157.813507 
	C624.601929,158.407654 624.157959,158.704620 623.412720,159.023407 
z"/>
<path fill="#FBF9FF" opacity="1.000000" stroke="none" 
	d="
M684.910400,59.656296 
	C684.416199,59.106724 683.999084,58.213295 683.845703,57.136459 
	C684.402161,57.739517 684.694824,58.525978 684.910400,59.656296 
z"/>
<path fill="#FBF9FF" opacity="1.000000" stroke="none" 
	d="
M658.387573,142.050964 
	C658.831787,141.408264 659.605347,140.719482 660.746704,140.036530 
	C660.315308,140.696548 659.516052,141.350708 658.387573,142.050964 
z"/>
<path fill="#FBF9FF" opacity="1.000000" stroke="none" 
	d="
M655.369751,144.060516 
	C655.814636,143.422821 656.587036,142.730927 657.727051,142.049759 
	C657.295471,142.709076 656.496338,143.357697 655.369751,144.060516 
z"/>
<path fill="#FBF9FF" opacity="1.000000" stroke="none" 
	d="
M641.931152,7.590050 
	C641.390686,7.836370 640.738342,7.786649 640.042969,7.451797 
	C640.606384,7.209114 641.212830,7.251562 641.931152,7.590050 
z"/>
<path fill="#000000" opacity="1.000000" stroke="none" 
	d="
M645.990723,38.833344 
	C650.285522,44.336491 654.580383,49.839642 658.944580,55.978481 
	C659.304749,57.090469 659.595520,57.566769 659.886230,58.043076 
	C660.225769,58.822636 660.565247,59.602192 660.959961,61.048992 
	C661.638855,63.158482 662.262512,64.600731 662.886108,66.042976 
	C663.257629,68.605415 663.468994,71.203430 664.028564,73.724121 
	C666.394897,84.382553 663.345215,94.170036 658.986572,103.608528 
	C656.788574,108.368095 653.687439,112.710587 650.658936,117.691376 
	C649.844055,118.746536 649.364868,119.351982 648.885681,119.957428 
	C648.528442,119.957184 648.256958,120.109612 647.702271,120.773804 
	C646.184204,122.074409 645.034912,123.015907 643.885681,123.957420 
	C643.299500,124.418236 642.713379,124.879036 641.753967,125.718140 
	C640.455139,126.773643 639.529480,127.450844 638.603882,128.128052 
	C638.603882,128.128052 638.293518,128.274124 637.926575,128.606949 
	C632.373291,131.348740 627.186890,133.757706 622.000549,136.166656 
	C621.247925,136.115219 620.495239,136.063797 619.073975,136.056976 
	C617.937073,136.456619 617.468811,136.811646 617.000549,137.166656 
	C615.608459,137.115189 614.216370,137.063736 612.114807,137.056915 
	C610.937073,137.456604 610.468811,137.811630 610.000549,138.166656 
	C578.021545,138.111115 546.042603,138.054230 514.063599,138.001282 
	C508.582245,137.992218 503.100922,138.000000 497.310303,138.000000 
	C497.310303,99.768921 497.310303,61.710873 497.310303,24.008461 
	C537.455811,24.008461 577.765259,24.008461 618.689453,24.408455 
	C622.202820,25.483408 625.101501,26.158369 628.000183,26.833324 
	C633.627869,30.340631 639.255554,33.847946 644.976257,37.950615 
	C645.376465,38.641762 645.683594,38.737553 645.990723,38.833344 
z"/>
<path fill="#FBF9FF" opacity="1.000000" stroke="none" 
	d="
M622.062256,136.482361 
	C627.186890,133.757706 632.373291,131.348740 637.848755,128.759766 
	C638.276184,128.877655 638.414551,129.175537 638.552917,129.473404 
	C633.076599,131.914948 627.600281,134.356506 622.062256,136.482361 
z"/>
<path fill="#FBF9FF" opacity="1.000000" stroke="none" 
	d="
M627.924561,26.491116 
	C625.101501,26.158369 622.202820,25.483408 619.131592,24.462353 
	C621.922363,24.793806 624.885620,25.471354 627.924561,26.491116 
z"/>
<path fill="#FBF9FF" opacity="1.000000" stroke="none" 
	d="
M663.146423,65.851761 
	C662.262512,64.600731 661.638855,63.158482 661.090942,61.358028 
	C661.913330,62.553398 662.660034,64.106972 663.146423,65.851761 
z"/>
<path fill="#FBF9FF" opacity="1.000000" stroke="none" 
	d="
M644.287842,123.968269 
	C645.034912,123.015907 646.184204,122.074409 647.645142,121.009567 
	C646.867981,121.917206 645.778992,122.948166 644.287842,123.968269 
z"/>
<path fill="#FBF9FF" opacity="1.000000" stroke="none" 
	d="
M638.954163,128.343536 
	C639.529480,127.450844 640.455139,126.773643 641.668823,125.991341 
	C641.072754,126.777168 640.188599,127.668091 638.954163,128.343536 
z"/>
<path fill="#FBF9FF" opacity="1.000000" stroke="none" 
	d="
M617.054443,137.461609 
	C617.468811,136.811646 617.937073,136.456619 618.702942,136.134125 
	C618.836243,136.914917 618.671936,137.663177 618.507629,138.411438 
	C618.041199,138.193146 617.574768,137.974854 617.054443,137.461609 
z"/>
<path fill="#FBF9FF" opacity="1.000000" stroke="none" 
	d="
M610.054443,138.461609 
	C610.468811,137.811630 610.937073,137.456604 611.702942,137.134109 
	C611.836243,137.914917 611.671936,138.663177 611.507629,139.411438 
	C611.041199,139.193161 610.574768,138.974869 610.054443,138.461609 
z"/>
<path fill="#FBF9FF" opacity="1.000000" stroke="none" 
	d="
M649.225464,119.965492 
	C649.364868,119.351982 649.844055,118.746536 650.603882,118.049759 
	C650.444763,118.630142 650.005005,119.301849 649.225464,119.965492 
z"/>
<path fill="#FBF9FF" opacity="1.000000" stroke="none" 
	d="
M660.124268,57.890961 
	C659.595520,57.566769 659.304749,57.090469 659.090332,56.306999 
	C659.565125,56.579502 659.963684,57.159180 660.124268,57.890961 
z"/>
<path fill="#FBF9FF" opacity="1.000000" stroke="none" 
	d="
M645.895203,38.658012 
	C645.683594,38.737553 645.376465,38.641762 645.117981,38.277962 
	C645.423279,38.106422 645.634338,38.264000 645.895203,38.658012 
z"/>
</svg>